<svg id="ilight" viewBox="0 0 180 180" width="150" xmlns="http://www.w3.org/2000/svg">
        <defs>
          <pattern id="gil" width="8" height="8" patternUnits="userSpaceOnUse"><path d="M8 0H0V8" fill="none" stroke="#2563EB" stroke-width="0.5"/></pattern>
          <clipPath id="cil">
            <polygon points="33,108 77,108 90,158 20,158"/>
            <polygon points="103,108 147,108 160,158 90,158"/>
          </clipPath>
        </defs>
        <rect width="180" height="180" rx="40" fill="#F8F9FB"/>
        <polygon points="33,108 77,108 90,158 20,158" fill="url(#gil)" clip-path="url(#cil)" opacity="0.28"/>
        <polygon points="103,108 147,108 160,158 90,158" fill="url(#gil)" clip-path="url(#cil)" opacity="0.28"/>
        <line x1="55" y1="18" x2="20" y2="158" stroke="#1E293B" stroke-width="4" stroke-linecap="round"/>
        <line x1="55" y1="18" x2="90" y2="158" stroke="#1E293B" stroke-width="4" stroke-linecap="round"/>
        <line x1="125" y1="18" x2="90" y2="158" stroke="#1E293B" stroke-width="4" stroke-linecap="round"/>
        <line x1="125" y1="18" x2="160" y2="158" stroke="#1E293B" stroke-width="4" stroke-linecap="round"/>
        <line x1="20" y1="158" x2="160" y2="158" stroke="#1E293B" stroke-width="3.2" stroke-linecap="round"/>
        <line x1="33" y1="108" x2="77" y2="108" stroke="#2563EB" stroke-width="3.2" stroke-linecap="round"/>
        <line x1="103" y1="108" x2="147" y2="108" stroke="#2563EB" stroke-width="3.2" stroke-linecap="round"/>
        <line x1="77" y1="108" x2="103" y2="108" stroke="#2563EB" stroke-width="1" stroke-dasharray="3,3.5" opacity="0.45"/>
        <line x1="55" y1="108" x2="55" y2="158" stroke="#2563EB" stroke-width="1.6" opacity="0.6"/>
        <line x1="125" y1="108" x2="125" y2="158" stroke="#2563EB" stroke-width="1.6" opacity="0.6"/>
        <line x1="23" y1="133" x2="52" y2="133" stroke="#2563EB" stroke-width="0.9" opacity="0.45"/>
        <line x1="58" y1="133" x2="87" y2="133" stroke="#2563EB" stroke-width="0.9" opacity="0.45"/>
        <line x1="93" y1="133" x2="122" y2="133" stroke="#2563EB" stroke-width="0.9" opacity="0.45"/>
        <line x1="128" y1="133" x2="157" y2="133" stroke="#2563EB" stroke-width="0.9" opacity="0.45"/>
        <line x1="33" y1="101" x2="33" y2="115" stroke="#2563EB" stroke-width="1.5" opacity="0.5"/>
        <line x1="77" y1="101" x2="77" y2="115" stroke="#2563EB" stroke-width="1.5" opacity="0.5"/>
        <line x1="103" y1="101" x2="103" y2="115" stroke="#2563EB" stroke-width="1.5" opacity="0.5"/>
        <line x1="147" y1="101" x2="147" y2="115" stroke="#2563EB" stroke-width="1.5" opacity="0.5"/>
        <circle cx="55" cy="18" r="5.5" fill="#D97706"/>
        <circle cx="55" cy="18" r="11" fill="none" stroke="#D97706" stroke-width="1.1" opacity="0.32"/>
        <circle cx="125" cy="18" r="5.5" fill="#D97706"/>
        <circle cx="125" cy="18" r="11" fill="none" stroke="#D97706" stroke-width="1.1" opacity="0.32"/>
      </svg>